<?xml version="1.0" encoding="UTF-8"?>
<svg id="Capa_2" data-name="Capa 2" xmlns="http://www.w3.org/2000/svg" viewBox="0 0 314 197.12">
  <defs>
    <style>
      .cls-1, .cls-2 {
        fill: #143f9e;
      }

      .cls-2 {
        stroke: #143f9e;
        stroke-miterlimit: 10;
      }

      .cls-3 {
        fill: #224088;
      }

      .cls-4 {
        fill: #a7e5f4;
      }

      .cls-5 {
        fill: #164094;
      }
    </style>
  </defs>
  <g id="Capa_1-2" data-name="Capa 1">
    <ellipse class="cls-5" cx="142.06" cy="7.12" rx="4.64" ry="7.2" transform="translate(64.86 126.59) rotate(-60)"/>
    <g>
      <path class="cls-5" d="M141.19,68.74c.3-1.05-1.74-2.23-2.83-2.8-8.17-3.95-28.47-13.36-33.04-25.91-2.18-5.68-1.84-12.57-.56-18.49,1.72-8.18,12.74-13.11,20.11-14.71,3.92-.95,7.97-.42,11.15-1.13,4.08-.82,3.78-3.26.09-4.46-9.92-2.23-20.01,1.42-28.03,6.82-5.21,3.51-9.27,8.9-10.52,14.76-3.13,11.07-.34,20.71,7.38,29.32,4.66,5.74,10.13,9.37,16.88,12.65,4.41,2.21,15.66,8.51,19.35,4.01l.02-.06Z"/>
      <path class="cls-5" d="M141.19,68.74c.3-1.05-1.74-2.23-2.83-2.8-8.17-3.95-28.47-13.36-33.04-25.91-2.18-5.68-1.84-12.57-.56-18.49,1.72-8.18,12.74-13.11,20.11-14.71,3.92-.95,7.97-.42,11.15-1.13,4.08-.82,3.78-3.26.09-4.46-9.92-2.23-20.01,1.42-28.03,6.82-5.21,3.51-9.27,8.9-10.52,14.76-3.13,11.07-.34,20.71,7.38,29.32,4.66,5.74,10.13,9.37,16.88,12.65,4.41,2.21,15.66,8.51,19.35,4.01l.02-.06Z"/>
    </g>
    <ellipse class="cls-5" cx="164.46" cy="7.18" rx="8.03" ry="4.96" transform="translate(14.31 74.67) rotate(-26.7)"/>
    <path class="cls-5" d="M166.13,68.54c-.31-1.05,2.36-2.6,3.5-3.16,8.56-3.95,29.84-13.36,34.63-25.91,2.29-5.68,1.92-12.57.59-18.49-1.8-8.18-13.35-13.11-21.07-14.71-4.1-.95-8.36-.42-11.69-1.13-4.28-.82-3.96-3.26-.09-4.46,10.4-2.23,20.97,1.42,29.37,6.82,5.46,3.51,9.72,8.9,11.02,14.76,3.29,11.07.36,20.71-7.74,29.32-4.88,5.74-10.61,9.37-17.69,12.65-4.63,2.21-18.45,9.84-22.31,5.33l1.48-1.01Z"/>
    <g>
      <path class="cls-2" d="M150.04,108.1s.32,6.64-5.06,6.64-32.81-.36-32.81-.36c0,0-12.65-.08-18.54,9.71-.35.58-.44,1.27-.28,1.93.58,2.36,3.45,7.56,17.35,9.22,18.19,2.17,35.43,1.66,35.43,1.66,0,0,23.55-1.53,34.15-6.32,0,0,10.53-4.4,14.49-7.15,1.75-1.21,8.59-5.82,9.8-6.68,1.31-.94-3.8.67-4.93-.48l2.96-2.92c-.93-.95-5.37,1.87-6.42,2.68-5.01,3.83-20.6,13.92-46.67,14.75-32.23,1.02-42.38-2.49-42.38-2.49,0,0-16.22-2.84,5.94-8.42.16-.04-6.7,1.13.43-.05.05,0,.09-.01.14-.01l29.6.52c.08,0,.86-.03.93-.01,1.53.32,13.07-.16,12.77-14.91"/>
      <g>
        <ellipse class="cls-1" cx="204.71" cy="111.98" rx="8.29" ry="6.56" transform="translate(-10.23 21.17) rotate(-5.78)"/>
        <path class="cls-1" d="M204.71,97.92c-9.8,0-17.74,6.46-17.74,14.43s7.94,14.43,17.74,14.43,17.74-6.46,17.74-14.43-7.94-14.43-17.74-14.43ZM204.57,121.74c-6.29,0-11.39-4.37-11.39-9.76s5.1-9.76,11.39-9.76,11.39,4.37,11.39,9.76-5.1,9.76-11.39,9.76Z"/>
      </g>
    </g>
    <path class="cls-4" d="M183.11,70.13h-16.72v-12.9c-.76-3.96-5.62-4.09-5.62-4.09h-15.83c-3.7.26-5.36,4.47-5.36,4.47v12.51h-16.34c-3.7-.63-5.36,3.7-5.36,3.7v11.62c.38,6,5.36,5.62,5.36,5.62h16.34v10.85c.26,4.47,5.36,6.38,5.36,6.38h15.96c4.6-.26,5.49-4.21,5.49-4.21v-12.77h16.08c4.6-.13,5.87-3.96,5.87-3.96v-12.89c-1.02-3.57-5.23-4.34-5.23-4.34ZM182.15,86.15h-19.02s-1.79-.38-2.94,1.4v16.47h-14.43v-16.47s0-1.4-1.91-1.4h-19.79v-10.98h19.79s1.15.13,1.91-1.4v-16.34h14.43l.38,16.09s.77,1.66,2.56,1.66h19.02v10.98Z"/>
    <g>
      <g>
        <path class="cls-3" d="M14.53,165.88v-27.3h14.02c2.72,0,5.07.42,7.05,1.25,1.98.83,3.52,2.02,4.6,3.57,1.08,1.55,1.62,3.37,1.62,5.48s-.54,3.93-1.62,5.46c-1.08,1.53-2.62,2.72-4.6,3.57-1.98.85-4.33,1.27-7.05,1.27h-8.57l4.37-3.94v10.65h-9.82ZM24.35,156.25l-4.37-4.17h7.95c1.36,0,2.36-.29,3.02-.86.65-.57.98-1.35.98-2.34s-.33-1.77-.98-2.34c-.65-.57-1.66-.86-3.02-.86h-7.95l4.37-4.17v14.74Z"/>
        <path class="cls-3" d="M63.14,166.5c-2.49,0-4.79-.35-6.91-1.05-2.12-.7-3.95-1.7-5.5-2.98-1.55-1.29-2.76-2.8-3.62-4.54-.86-1.74-1.29-3.64-1.29-5.69s.43-3.98,1.29-5.71c.86-1.73,2.07-3.24,3.62-4.52,1.55-1.29,3.38-2.28,5.5-2.98,2.12-.7,4.42-1.05,6.91-1.05s4.82.35,6.93,1.05c2.1.7,3.93,1.7,5.48,2.98,1.55,1.29,2.76,2.79,3.62,4.52.86,1.73,1.29,3.63,1.29,5.71s-.43,3.95-1.29,5.69c-.86,1.74-2.07,3.26-3.62,4.54-1.55,1.29-3.38,2.28-5.48,2.98-2.11.7-4.41,1.05-6.93,1.05ZM63.14,159.06c.96,0,1.86-.16,2.7-.47.83-.31,1.56-.76,2.19-1.35s1.12-1.3,1.47-2.14.53-1.8.53-2.87-.18-2.02-.53-2.87c-.35-.84-.84-1.56-1.47-2.14-.63-.59-1.36-1.03-2.19-1.35-.83-.31-1.73-.47-2.7-.47s-1.86.16-2.7.47c-.83.31-1.56.76-2.19,1.35-.63.58-1.12,1.3-1.47,2.14-.35.85-.53,1.8-.53,2.87s.18,2.02.53,2.87.84,1.56,1.47,2.14c.63.58,1.36,1.03,2.19,1.35.83.31,1.73.47,2.7.47Z"/>
        <path class="cls-3" d="M84.89,164.93v-26.59h10.55v19.64h14.13v6.95h-24.68Z"/>
        <path class="cls-3" d="M109.57,165.13l12.9-25.8h9.78l12.9,25.8h-10.28l-9.53-21.67h3.88l-9.53,21.67h-10.12ZM117.24,160.63l2.53-6.26h13.57l2.53,6.26h-18.63Z"/>
        <path class="cls-3" d="M147.82,165.28v-25.39h14.08c4.62,0,8.14.86,10.55,2.58,2.41,1.72,3.62,4.05,3.62,7,0,1.96-.56,3.65-1.68,5.06-1.12,1.41-2.71,2.5-4.76,3.25-2.05.75-4.49,1.12-7.3,1.12h-8.87l4.52-3.52v9.9h-10.16ZM157.98,156.32l-4.52-3.88h8.23c1.41,0,2.45-.27,3.12-.8.67-.53,1.01-1.26,1.01-2.18s-.34-1.65-1.01-2.18c-.68-.53-1.72-.8-3.12-.8h-8.23l4.52-3.88v13.71ZM165.87,165.28l-7.41-9.25h10.77l7.49,9.25h-10.85Z"/>
        <path class="cls-3" d="M194.39,165.69v-25.8h8.32l12.01,16.84h-4.38l11.67-16.84h8.32l.09,25.8h-9.22l-.09-13.86h1.46l-7.98,11.53h-4.46l-8.32-11.53h1.8v13.86h-9.22Z"/>
        <path class="cls-3" d="M237.32,165.28v-25.39h24.88v6.46h-14.73v12.48h15.3v6.46h-25.44ZM246.76,155.49v-6.17h13.64v6.17h-13.64Z"/>
        <path class="cls-3" d="M267.99,165.28v-25.39h15.06c3.4,0,6.4.51,8.99,1.54,2.59,1.03,4.61,2.48,6.07,4.37s2.18,4.15,2.18,6.78-.73,4.87-2.18,6.77c-1.45,1.9-3.48,3.36-6.07,4.39-2.59,1.03-5.59,1.54-8.99,1.54h-15.06ZM278.29,158.61h4.32c1.45,0,2.73-.23,3.82-.69,1.09-.46,1.94-1.14,2.55-2.05.61-.91.92-2,.92-3.28s-.3-2.41-.92-3.3c-.61-.89-1.46-1.57-2.55-2.03-1.09-.46-2.36-.69-3.82-.69h-4.32v12.04Z"/>
      </g>
      <g>
        <g>
          <path class="cls-3" d="M.08,189.56c1.73.9,3.69,1.35,5.89,1.35,1.25,0,2.18-.13,2.81-.41.63-.27.94-.62.94-1.04,0-.37-.25-.71-.75-1.04s-1.81-.77-3.95-1.33c-3.35-.9-5.03-2.2-5.03-3.91,0-1.26.76-2.23,2.28-2.93,1.52-.7,3.53-1.04,6.03-1.04,2.1,0,3.86.17,5.28.52v2.71c-1.44-.62-3.13-.93-5.06-.93-1.13,0-2.03.13-2.7.39-.67.26-1.01.61-1.01,1.04,0,.35.23.67.69.97.46.3,1.6.69,3.42,1.19,2.13.58,3.6,1.19,4.4,1.83s1.2,1.4,1.2,2.29c0,1.3-.73,2.29-2.19,2.97s-3.53,1.02-6.22,1.02c-2.46,0-4.47-.25-6.04-.75v-2.89Z"/>
          <path class="cls-3" d="M27.37,183.64c.65-.26,1.51-.47,2.6-.63s2.01-.24,2.78-.24c4.01,0,6.02,1.43,6.02,4.28v6.14h-3.98v-1.48h-.05c-.98,1.15-2.41,1.73-4.29,1.73-1.36,0-2.44-.27-3.26-.82s-1.23-1.3-1.23-2.24c0-1.95,1.64-3.08,4.91-3.4l3.94-.38c0-1.18-.87-1.77-2.61-1.77s-3.32.37-4.84,1.1v-2.29ZM32.1,188.59c-1.51.14-2.27.63-2.27,1.45,0,.38.18.69.55.92s.86.35,1.48.35c.86,0,1.56-.21,2.11-.64s.83-.96.83-1.6v-.73l-2.71.25Z"/>
          <path class="cls-3" d="M52.56,193.21v-14.76h3.7v14.76h-3.7Z"/>
          <path class="cls-3" d="M83.87,193.65h-4.04v-1.66h-.06c-1.04,1.28-2.47,1.93-4.27,1.93-3.24,0-4.86-1.53-4.86-4.58v-6.56h4.07v6.26c0,1.63.81,2.44,2.44,2.44.81,0,1.47-.22,1.95-.67s.73-1.05.73-1.81v-6.22h4.04v10.87Z"/>
          <path class="cls-3" d="M111.7,193.21h-4.11v-1.37h-.06c-1,1.07-2.47,1.61-4.42,1.61-1.8,0-3.22-.44-4.28-1.31s-1.59-2.06-1.59-3.57c0-1.59.59-2.88,1.78-3.85,1.19-.98,2.74-1.46,4.65-1.46s3.12.46,3.86,1.37h.06v-5.8h4.11v14.39ZM107.65,187.7c0-.66-.29-1.2-.86-1.63-.57-.43-1.29-.65-2.15-.65-1,0-1.79.27-2.37.82-.57.55-.86,1.29-.86,2.23s.28,1.58.83,2.06c.55.48,1.32.73,2.29.73.91,0,1.66-.25,2.25-.76s.88-1.17.88-1.99v-.81Z"/>
        </g>
        <g>
          <path class="cls-3" d="M142.7,179.35c0-.47.19-.85.58-1.14.39-.29.88-.44,1.49-.44s1.12.15,1.5.45.58.68.58,1.13-.2.85-.59,1.15c-.39.31-.89.46-1.49.46s-1.09-.15-1.48-.46-.59-.69-.59-1.15ZM142.97,193.23v-10.49h3.56v10.49h-3.56Z"/>
          <path class="cls-3" d="M174.34,192.96h-4.2v-5.73c0-1.66-.84-2.49-2.52-2.49-.8,0-1.47.22-2,.66-.53.44-.8,1.01-.8,1.69v5.86h-4.23v-10.27h4.23v1.63h.05c1.06-1.26,2.61-1.88,4.66-1.88,3.21,0,4.81,1.41,4.81,4.23v6.28Z"/>
          <path class="cls-3" d="M195.7,193.08c-.59.25-1.48.37-2.67.37-2.83,0-4.25-1.15-4.25-3.46v-4.88h-2.2v-2.25h2.2v-2.27l3.87-.86v3.13h3.04v2.25h-3.04v4.36c0,1.1.56,1.66,1.69,1.66.43,0,.88-.1,1.35-.3v2.25Z"/>
          <path class="cls-3" d="M222.17,188.59h-9.59c.15,1.53,1.51,2.29,4.09,2.29,1.61,0,3.03-.27,4.26-.8v2.12c-1.33.51-3.07.76-5.22.76-2.32,0-4.12-.44-5.41-1.33-1.29-.89-1.93-2.12-1.93-3.71s.69-2.86,2.06-3.84c1.37-.98,3.09-1.48,5.17-1.48s3.68.42,4.84,1.27c1.16.85,1.75,2.01,1.75,3.49v1.22ZM218.2,186.79c0-1.48-.88-2.21-2.65-2.21-.73,0-1.38.2-1.94.61s-.91.94-1.05,1.61h5.64Z"/>
          <path class="cls-3" d="M249.32,191.49c0,1.8-.75,3.2-2.24,4.17-1.49.98-3.64,1.46-6.45,1.46-1.91,0-3.42-.19-4.54-.56v-2.43c1.46.59,2.94.88,4.43.88s2.62-.27,3.45-.81c.83-.54,1.24-1.29,1.24-2.25v-.81h-.06c-1,1.11-2.48,1.66-4.44,1.66-1.78,0-3.2-.44-4.27-1.31s-1.6-2.04-1.6-3.51c0-1.63.59-2.94,1.77-3.92,1.18-.98,2.72-1.46,4.64-1.46,1.74,0,3.04.47,3.9,1.4h.06v-1.16h4.11v8.65ZM245.25,187.08c0-.64-.28-1.19-.85-1.63-.57-.44-1.28-.66-2.14-.66-1,0-1.8.27-2.38.81s-.87,1.3-.87,2.28c0,.85.28,1.52.84,2.01s1.31.73,2.23.73,1.7-.25,2.28-.75.88-1.15.88-1.94v-.85Z"/>
          <path class="cls-3" d="M271.19,185.48c-.43-.21-.95-.31-1.56-.31-.8,0-1.44.26-1.91.77-.47.52-.7,1.22-.7,2.13v4.9h-3.53v-10.18h3.53v1.91h.04c.58-1.39,1.64-2.09,3.18-2.09.42,0,.73.04.95.12v2.75Z"/>
          <path class="cls-3" d="M284.73,183.57c.63-.26,1.47-.48,2.52-.64s1.95-.24,2.7-.24c3.89,0,5.84,1.46,5.84,4.37v6.28h-3.86v-1.51h-.05c-.95,1.18-2.34,1.77-4.16,1.77-1.32,0-2.37-.28-3.16-.84-.79-.56-1.19-1.32-1.19-2.29,0-1.99,1.59-3.15,4.77-3.48l3.82-.39c0-1.21-.84-1.81-2.53-1.81s-3.22.38-4.69,1.13v-2.34ZM289.32,188.63c-1.47.14-2.2.64-2.2,1.49,0,.39.18.7.53.94s.84.36,1.44.36c.83,0,1.51-.22,2.05-.66s.81-.98.81-1.64v-.74l-2.63.25Z"/>
          <path class="cls-3" d="M309.89,193.59v-15.49h4.11v15.49h-4.11Z"/>
        </g>
      </g>
    </g>
  </g>
</svg>